<mxfile host="65bd71144e">
    <diagram id="h_Irroo8Dzm5BDtmMPkF" name="第 1 页">
        <mxGraphModel dx="1533" dy="1131" grid="0" gridSize="10" guides="1" tooltips="1" connect="1" arrows="1" fold="1" page="0" pageScale="1" pageWidth="827" pageHeight="1169" background="#ffffff" math="0" shadow="0">
            <root>
                <mxCell id="0"/>
                <mxCell id="1" parent="0"/>
                <mxCell id="4" value="" style="edgeStyle=none;html=1;fontSize=15;align=center;fontColor=#0a0a0a;strokeColor=#171616;" parent="1" source="2" target="3" edge="1">
                    <mxGeometry relative="1" as="geometry"/>
                </mxCell>
                <mxCell id="2" value="工作区" style="rounded=1;whiteSpace=wrap;html=1;fontSize=15;align=center;fontColor=#ffffff;strokeColor=#A50040;fillColor=#D8B5BE;" parent="1" vertex="1">
                    <mxGeometry x="100" y="190" width="120" height="60" as="geometry"/>
                </mxCell>
                <mxCell id="6" value="" style="edgeStyle=none;html=1;fontSize=15;align=center;fontColor=#0a0a0a;strokeColor=#171616;" parent="1" source="3" target="5" edge="1">
                    <mxGeometry relative="1" as="geometry"/>
                </mxCell>
                <mxCell id="3" value="暂存区" style="whiteSpace=wrap;html=1;rounded=1;fontSize=15;align=center;fontColor=#000000;strokeColor=#B09500;fillColor=#D6E364;" parent="1" vertex="1">
                    <mxGeometry x="300" y="190" width="120" height="60" as="geometry"/>
                </mxCell>
                <mxCell id="5" value="版本区" style="whiteSpace=wrap;html=1;rounded=1;fontSize=15;align=center;fontColor=#0a0a0a;fillColor=#A3C497;strokeColor=#171616;" parent="1" vertex="1">
                    <mxGeometry x="500" y="190" width="120" height="60" as="geometry"/>
                </mxCell>
                <mxCell id="7" value="git add" style="text;html=1;align=center;verticalAlign=middle;resizable=0;points=[];autosize=1;strokeColor=none;fillColor=none;fontSize=15;fontColor=#0a0a0a;" parent="1" vertex="1">
                    <mxGeometry x="228" y="224" width="63" height="30" as="geometry"/>
                </mxCell>
                <mxCell id="8" value="git commit" style="text;html=1;align=center;verticalAlign=middle;resizable=0;points=[];autosize=1;strokeColor=none;fillColor=none;fontSize=15;fontColor=#0a0a0a;" parent="1" vertex="1">
                    <mxGeometry x="417" y="223" width="86" height="30" as="geometry"/>
                </mxCell>
                <mxCell id="9" value="货物A&lt;br&gt;货物B" style="text;html=1;align=center;verticalAlign=middle;resizable=0;points=[];autosize=1;strokeColor=none;fillColor=none;fontSize=15;fontColor=#0a0a0a;" parent="1" vertex="1">
                    <mxGeometry x="131" y="256" width="58" height="48" as="geometry"/>
                </mxCell>
                <mxCell id="10" value="装车" style="text;html=1;align=center;verticalAlign=middle;resizable=0;points=[];autosize=1;strokeColor=none;fillColor=none;fontSize=15;fontColor=#0a0a0a;" parent="1" vertex="1">
                    <mxGeometry x="333" y="265" width="48" height="30" as="geometry"/>
                </mxCell>
                <mxCell id="11" value="仓库" style="text;html=1;align=center;verticalAlign=middle;resizable=0;points=[];autosize=1;strokeColor=none;fillColor=none;fontSize=15;fontColor=#0a0a0a;" parent="1" vertex="1">
                    <mxGeometry x="536" y="265" width="48" height="30" as="geometry"/>
                </mxCell>
                <mxCell id="12" value="我的本地" style="rounded=1;whiteSpace=wrap;html=1;strokeColor=#C1C7A7;fontSize=15;fillColor=#c6d5e2;fontColor=#0d0d0d;" parent="1" vertex="1">
                    <mxGeometry x="108" y="457" width="120" height="60" as="geometry"/>
                </mxCell>
                <mxCell id="13" value="远端仓库&lt;br&gt;（GitHub等）" style="shape=hexagon;perimeter=hexagonPerimeter2;whiteSpace=wrap;html=1;fixedSize=1;fontSize=15;fillColor=#a5c898;strokeColor=#161712;fontColor=#0a0a0a;rounded=1;" parent="1" vertex="1">
                    <mxGeometry x="330" y="447" width="120" height="80" as="geometry"/>
                </mxCell>
                <mxCell id="15" value="" style="shape=flexArrow;endArrow=classic;startArrow=classic;html=1;strokeColor=#171616;fontSize=15;fontColor=#0a0a0a;entryX=0;entryY=0.5;entryDx=0;entryDy=0;exitX=1;exitY=0.433;exitDx=0;exitDy=0;exitPerimeter=0;" parent="1" edge="1">
                    <mxGeometry width="100" height="100" relative="1" as="geometry">
                        <mxPoint x="228" y="484.98" as="sourcePoint"/>
                        <mxPoint x="331" y="486" as="targetPoint"/>
                    </mxGeometry>
                </mxCell>
                <mxCell id="16" value="" style="shape=flexArrow;endArrow=classic;startArrow=classic;html=1;strokeColor=#171616;fontSize=15;fontColor=#0a0a0a;" parent="1" edge="1">
                    <mxGeometry width="100" height="100" relative="1" as="geometry">
                        <mxPoint x="450" y="478" as="sourcePoint"/>
                        <mxPoint x="531" y="415" as="targetPoint"/>
                    </mxGeometry>
                </mxCell>
                <mxCell id="17" value="" style="shape=flexArrow;endArrow=classic;startArrow=classic;html=1;strokeColor=#171616;fontSize=15;fontColor=#0a0a0a;" parent="1" edge="1">
                    <mxGeometry width="100" height="100" relative="1" as="geometry">
                        <mxPoint x="460" y="497" as="sourcePoint"/>
                        <mxPoint x="539" y="499" as="targetPoint"/>
                    </mxGeometry>
                </mxCell>
                <mxCell id="18" value="" style="shape=flexArrow;endArrow=classic;startArrow=classic;html=1;strokeColor=#171616;fontSize=15;fontColor=#0a0a0a;" parent="1" edge="1">
                    <mxGeometry width="100" height="100" relative="1" as="geometry">
                        <mxPoint x="455" y="505" as="sourcePoint"/>
                        <mxPoint x="522" y="585" as="targetPoint"/>
                    </mxGeometry>
                </mxCell>
                <mxCell id="19" value="合作者A" style="rounded=1;whiteSpace=wrap;html=1;strokeColor=#161712;fontSize=15;fontColor=#0a0a0a;fillColor=#AC97C4;" parent="1" vertex="1">
                    <mxGeometry x="538" y="381" width="120" height="60" as="geometry"/>
                </mxCell>
                <mxCell id="20" value="合作者B" style="rounded=1;whiteSpace=wrap;html=1;strokeColor=#161712;fontSize=15;fontColor=#0a0a0a;fillColor=#B3C47A;" parent="1" vertex="1">
                    <mxGeometry x="543" y="469" width="120" height="60" as="geometry"/>
                </mxCell>
                <mxCell id="21" value="合作者C" style="rounded=1;whiteSpace=wrap;html=1;strokeColor=#161712;fontSize=15;fontColor=#0a0a0a;fillColor=#C48390;" parent="1" vertex="1">
                    <mxGeometry x="541" y="563" width="120" height="60" as="geometry"/>
                </mxCell>
                <mxCell id="24" value="" style="edgeStyle=none;html=1;strokeColor=#121111;strokeWidth=3;" edge="1" parent="1" source="22" target="23">
                    <mxGeometry relative="1" as="geometry"/>
                </mxCell>
                <mxCell id="22" value="Commit 1" style="ellipse;whiteSpace=wrap;html=1;fillColor=none;strokeColor=#201e1e;fontColor=#050505;fontSize=18;fontStyle=1;strokeWidth=2;" vertex="1" parent="1">
                    <mxGeometry x="63" y="713" width="120" height="80" as="geometry"/>
                </mxCell>
                <mxCell id="26" value="" style="edgeStyle=none;html=1;strokeColor=#121111;strokeWidth=3;" edge="1" parent="1" source="23" target="25">
                    <mxGeometry relative="1" as="geometry"/>
                </mxCell>
                <mxCell id="29" style="edgeStyle=none;html=1;exitX=1;exitY=0.5;exitDx=0;exitDy=0;entryX=0.5;entryY=0;entryDx=0;entryDy=0;strokeColor=#121111;strokeWidth=3;fontSize=18;fontColor=#000000;" edge="1" parent="1" source="23" target="27">
                    <mxGeometry relative="1" as="geometry"/>
                </mxCell>
                <mxCell id="23" value="commit2" style="ellipse;whiteSpace=wrap;html=1;gradientColor=none;fillColor=none;strokeColor=#1a1919;fontColor=#000000;fontSize=18;fontStyle=1;strokeWidth=2;" vertex="1" parent="1">
                    <mxGeometry x="63" y="831" width="120" height="80" as="geometry"/>
                </mxCell>
                <mxCell id="32" style="edgeStyle=none;html=1;exitX=0.5;exitY=1;exitDx=0;exitDy=0;strokeColor=#121111;strokeWidth=3;fontSize=18;fontColor=#ea0606;entryX=0.185;entryY=0.013;entryDx=0;entryDy=0;entryPerimeter=0;" edge="1" parent="1" source="25" target="34">
                    <mxGeometry relative="1" as="geometry">
                        <mxPoint x="123.14285714285711" y="1180.2381243024554" as="targetPoint"/>
                    </mxGeometry>
                </mxCell>
                <mxCell id="25" value="commit3" style="ellipse;whiteSpace=wrap;html=1;strokeColor=#121111;fillColor=none;fontColor=#000000;fontSize=18;fontStyle=1;strokeWidth=2;" vertex="1" parent="1">
                    <mxGeometry x="63" y="947" width="120" height="80" as="geometry"/>
                </mxCell>
                <mxCell id="33" style="edgeStyle=none;html=1;exitX=0.5;exitY=1;exitDx=0;exitDy=0;strokeColor=#121111;strokeWidth=3;fontSize=18;fontColor=#ea0606;" edge="1" parent="1" source="27" target="34">
                    <mxGeometry relative="1" as="geometry">
                        <mxPoint x="163.6191057477679" y="1201.1904907226565" as="targetPoint"/>
                    </mxGeometry>
                </mxCell>
                <mxCell id="27" value="commit4" style="ellipse;whiteSpace=wrap;html=1;strokeColor=#121111;fillColor=none;fontColor=#000000;fontSize=18;fontStyle=1;strokeWidth=2;" vertex="1" parent="1">
                    <mxGeometry x="234" y="943" width="120" height="80" as="geometry"/>
                </mxCell>
                <mxCell id="30" value="master" style="text;html=1;align=center;verticalAlign=middle;resizable=0;points=[];autosize=1;strokeColor=none;fillColor=none;fontSize=20;fontColor=#ea0606;fontStyle=1" vertex="1" parent="1">
                    <mxGeometry x="84" y="674" width="84" height="36" as="geometry"/>
                </mxCell>
                <mxCell id="31" value="dev" style="text;html=1;align=center;verticalAlign=middle;resizable=0;points=[];autosize=1;strokeColor=none;fillColor=none;fontSize=20;fontColor=#ea0606;fontStyle=1" vertex="1" parent="1">
                    <mxGeometry x="268.5" y="874" width="52" height="36" as="geometry"/>
                </mxCell>
                <mxCell id="34" value="get merge" style="rounded=1;whiteSpace=wrap;html=1;strokeColor=#121111;strokeWidth=2;fontSize=18;fontColor=#ea0606;fillColor=none;gradientColor=none;" vertex="1" parent="1">
                    <mxGeometry x="102.99910574776789" y="1095.0004907226564" width="120" height="60" as="geometry"/>
                </mxCell>
                <mxCell id="35" value="" style="edgeStyle=none;html=1;strokeColor=#121111;strokeWidth=3;" edge="1" parent="1" source="36" target="38">
                    <mxGeometry relative="1" as="geometry"/>
                </mxCell>
                <mxCell id="36" value="Commit 1" style="ellipse;whiteSpace=wrap;html=1;fillColor=none;strokeColor=#201e1e;fontColor=#050505;fontSize=18;fontStyle=1;strokeWidth=2;" vertex="1" parent="1">
                    <mxGeometry x="19" y="1319" width="120" height="80" as="geometry"/>
                </mxCell>
                <mxCell id="37" value="" style="edgeStyle=none;html=1;strokeColor=#121111;strokeWidth=3;" edge="1" parent="1" source="38" target="39">
                    <mxGeometry relative="1" as="geometry"/>
                </mxCell>
                <mxCell id="38" value="commit2" style="ellipse;whiteSpace=wrap;html=1;gradientColor=none;fillColor=none;strokeColor=#1a1919;fontColor=#000000;fontSize=18;fontStyle=1;strokeWidth=2;" vertex="1" parent="1">
                    <mxGeometry x="19" y="1479" width="120" height="80" as="geometry"/>
                </mxCell>
                <mxCell id="66" style="edgeStyle=none;html=1;exitX=0.5;exitY=1;exitDx=0;exitDy=0;strokeColor=#121111;strokeWidth=3;fontSize=19;fontColor=#f20202;" edge="1" parent="1" source="39">
                    <mxGeometry relative="1" as="geometry">
                        <mxPoint x="79" y="1779" as="targetPoint"/>
                    </mxGeometry>
                </mxCell>
                <mxCell id="39" value="commit3" style="ellipse;whiteSpace=wrap;html=1;strokeColor=#121111;fillColor=none;fontColor=#000000;fontSize=18;fontStyle=1;strokeWidth=2;" vertex="1" parent="1">
                    <mxGeometry x="19" y="1639" width="120" height="80" as="geometry"/>
                </mxCell>
                <mxCell id="40" value="master" style="text;html=1;align=center;verticalAlign=middle;resizable=0;points=[];autosize=1;strokeColor=none;fillColor=none;fontSize=19;fontColor=#ea0606;fontStyle=1" vertex="1" parent="1">
                    <mxGeometry x="41" y="1280" width="80" height="35" as="geometry"/>
                </mxCell>
                <mxCell id="41" value="" style="edgeStyle=none;html=1;strokeColor=#121111;strokeWidth=3;" edge="1" parent="1" source="42" target="44">
                    <mxGeometry relative="1" as="geometry"/>
                </mxCell>
                <mxCell id="42" value="Commit 4" style="ellipse;whiteSpace=wrap;html=1;fillColor=none;strokeColor=#201e1e;fontColor=#050505;fontSize=18;fontStyle=1;strokeWidth=2;" vertex="1" parent="1">
                    <mxGeometry x="205" y="1319" width="120" height="80" as="geometry"/>
                </mxCell>
                <mxCell id="43" value="" style="edgeStyle=none;html=1;strokeColor=#121111;strokeWidth=3;" edge="1" parent="1" source="44" target="45">
                    <mxGeometry relative="1" as="geometry"/>
                </mxCell>
                <mxCell id="65" style="edgeStyle=none;html=1;exitX=0;exitY=0.5;exitDx=0;exitDy=0;strokeColor=#121111;strokeWidth=3;fontSize=19;fontColor=#f20202;" edge="1" parent="1" source="44">
                    <mxGeometry relative="1" as="geometry">
                        <mxPoint x="135" y="1782" as="targetPoint"/>
                    </mxGeometry>
                </mxCell>
                <mxCell id="44" value="commit5" style="ellipse;whiteSpace=wrap;html=1;gradientColor=none;fillColor=none;strokeColor=#fb0404;fontColor=#f20202;fontSize=18;fontStyle=1;strokeWidth=2;" vertex="1" parent="1">
                    <mxGeometry x="205" y="1479" width="120" height="80" as="geometry"/>
                </mxCell>
                <mxCell id="45" value="commit6" style="ellipse;whiteSpace=wrap;html=1;strokeColor=#121111;fillColor=none;fontColor=#000000;fontSize=18;fontStyle=1;strokeWidth=2;" vertex="1" parent="1">
                    <mxGeometry x="205" y="1639" width="120" height="80" as="geometry"/>
                </mxCell>
                <mxCell id="46" value="dev" style="text;html=1;align=center;verticalAlign=middle;resizable=0;points=[];autosize=1;strokeColor=none;fillColor=none;fontSize=19;fontColor=#ea0606;fontStyle=1" vertex="1" parent="1">
                    <mxGeometry x="241" y="1280" width="51" height="35" as="geometry"/>
                </mxCell>
                <mxCell id="47" value="" style="shape=flexArrow;endArrow=classic;html=1;strokeColor=#121111;strokeWidth=3;fontSize=18;fontColor=#ea0606;width=27.058823529411764;endSize=4.835294117647059;" edge="1" parent="1">
                    <mxGeometry width="50" height="50" relative="1" as="geometry">
                        <mxPoint x="411" y="972" as="sourcePoint"/>
                        <mxPoint x="472" y="972" as="targetPoint"/>
                    </mxGeometry>
                </mxCell>
                <mxCell id="48" value="" style="edgeStyle=none;html=1;strokeColor=#121111;strokeWidth=3;" edge="1" parent="1" source="49" target="52">
                    <mxGeometry relative="1" as="geometry"/>
                </mxCell>
                <mxCell id="49" value="Commit 1" style="ellipse;whiteSpace=wrap;html=1;fillColor=none;strokeColor=#201e1e;fontColor=#050505;fontSize=18;fontStyle=1;strokeWidth=2;" vertex="1" parent="1">
                    <mxGeometry x="531" y="710" width="120" height="80" as="geometry"/>
                </mxCell>
                <mxCell id="50" value="" style="edgeStyle=none;html=1;strokeColor=#121111;strokeWidth=3;" edge="1" parent="1" source="52" target="54">
                    <mxGeometry relative="1" as="geometry"/>
                </mxCell>
                <mxCell id="51" style="edgeStyle=none;html=1;exitX=1;exitY=0.5;exitDx=0;exitDy=0;entryX=0.5;entryY=0;entryDx=0;entryDy=0;strokeColor=#121111;strokeWidth=3;fontSize=18;fontColor=#000000;" edge="1" parent="1" source="52" target="56">
                    <mxGeometry relative="1" as="geometry"/>
                </mxCell>
                <mxCell id="52" value="commit2" style="ellipse;whiteSpace=wrap;html=1;gradientColor=none;fillColor=none;strokeColor=#1a1919;fontColor=#000000;fontSize=18;fontStyle=1;strokeWidth=2;" vertex="1" parent="1">
                    <mxGeometry x="531" y="826" width="120" height="80" as="geometry"/>
                </mxCell>
                <mxCell id="63" value="" style="edgeStyle=none;html=1;strokeColor=#121111;strokeWidth=3;fontSize=18;fontColor=#ea0606;" edge="1" parent="1" source="54" target="60">
                    <mxGeometry relative="1" as="geometry"/>
                </mxCell>
                <mxCell id="54" value="commit3" style="ellipse;whiteSpace=wrap;html=1;strokeColor=#121111;fillColor=none;fontColor=#000000;fontSize=18;fontStyle=1;strokeWidth=2;" vertex="1" parent="1">
                    <mxGeometry x="531" y="943" width="120" height="80" as="geometry"/>
                </mxCell>
                <mxCell id="55" style="edgeStyle=none;html=1;exitX=0;exitY=0.5;exitDx=0;exitDy=0;strokeColor=#121111;strokeWidth=3;fontSize=18;fontColor=#ea0606;entryX=1;entryY=0.5;entryDx=0;entryDy=0;" edge="1" parent="1" source="56" target="60">
                    <mxGeometry relative="1" as="geometry">
                        <mxPoint x="685.8361396749715" y="1168.1904907226562" as="targetPoint"/>
                    </mxGeometry>
                </mxCell>
                <mxCell id="56" value="commit4" style="ellipse;whiteSpace=wrap;html=1;strokeColor=#121111;fillColor=none;fontColor=#000000;fontSize=18;fontStyle=1;strokeWidth=2;" vertex="1" parent="1">
                    <mxGeometry x="731" y="1030" width="120" height="80" as="geometry"/>
                </mxCell>
                <mxCell id="57" value="master" style="text;html=1;align=center;verticalAlign=middle;resizable=0;points=[];autosize=1;strokeColor=none;fillColor=none;fontSize=20;fontColor=#ea0606;fontStyle=1" vertex="1" parent="1">
                    <mxGeometry x="551" y="671" width="84" height="36" as="geometry"/>
                </mxCell>
                <mxCell id="58" value="dev" style="text;html=1;align=center;verticalAlign=middle;resizable=0;points=[];autosize=1;strokeColor=none;fillColor=none;fontSize=20;fontColor=#ea0606;fontStyle=1" vertex="1" parent="1">
                    <mxGeometry x="765.5" y="974" width="52" height="36" as="geometry"/>
                </mxCell>
                <mxCell id="64" value="" style="edgeStyle=none;html=1;strokeColor=#121111;strokeWidth=3;fontSize=18;fontColor=#ea0606;" edge="1" parent="1" source="60" target="61">
                    <mxGeometry relative="1" as="geometry"/>
                </mxCell>
                <mxCell id="60" value="commit4" style="ellipse;whiteSpace=wrap;html=1;strokeColor=#121111;fillColor=none;fontColor=#000000;fontSize=18;fontStyle=1;strokeWidth=2;" vertex="1" parent="1">
                    <mxGeometry x="534" y="1071" width="120" height="80" as="geometry"/>
                </mxCell>
                <mxCell id="61" value="merge commit" style="ellipse;whiteSpace=wrap;html=1;strokeColor=#121111;fillColor=none;fontColor=#000000;fontSize=18;fontStyle=1;strokeWidth=2;" vertex="1" parent="1">
                    <mxGeometry x="539" y="1187" width="120" height="80" as="geometry"/>
                </mxCell>
                <mxCell id="67" value="git cherry-pick" style="rounded=1;whiteSpace=wrap;html=1;strokeColor=#fb0404;strokeWidth=2;fontSize=19;fontColor=#f20202;fillColor=none;gradientColor=none;" vertex="1" parent="1">
                    <mxGeometry x="30" y="1784" width="155" height="60" as="geometry"/>
                </mxCell>
                <mxCell id="68" value="" style="shape=flexArrow;endArrow=classic;html=1;strokeColor=#121111;strokeWidth=3;fontSize=18;fontColor=#ea0606;width=27.058823529411764;endSize=4.835294117647059;" edge="1" parent="1">
                    <mxGeometry width="50" height="50" relative="1" as="geometry">
                        <mxPoint x="409" y="1523" as="sourcePoint"/>
                        <mxPoint x="469.9999999999998" y="1523" as="targetPoint"/>
                    </mxGeometry>
                </mxCell>
                <mxCell id="69" value="" style="edgeStyle=none;html=1;strokeColor=#121111;strokeWidth=3;" edge="1" parent="1" source="70" target="72">
                    <mxGeometry relative="1" as="geometry"/>
                </mxCell>
                <mxCell id="70" value="Commit 1" style="ellipse;whiteSpace=wrap;html=1;fillColor=none;strokeColor=#201e1e;fontColor=#050505;fontSize=18;fontStyle=1;strokeWidth=2;" vertex="1" parent="1">
                    <mxGeometry x="560" y="1319" width="120" height="80" as="geometry"/>
                </mxCell>
                <mxCell id="71" value="" style="edgeStyle=none;html=1;strokeColor=#121111;strokeWidth=3;" edge="1" parent="1" source="72" target="74">
                    <mxGeometry relative="1" as="geometry"/>
                </mxCell>
                <mxCell id="72" value="commit2" style="ellipse;whiteSpace=wrap;html=1;gradientColor=none;fillColor=none;strokeColor=#1a1919;fontColor=#000000;fontSize=18;fontStyle=1;strokeWidth=2;" vertex="1" parent="1">
                    <mxGeometry x="560" y="1479" width="120" height="80" as="geometry"/>
                </mxCell>
                <mxCell id="89" value="" style="edgeStyle=none;html=1;strokeColor=#121111;strokeWidth=3;fontSize=19;fontColor=#f20202;" edge="1" parent="1" source="74" target="84">
                    <mxGeometry relative="1" as="geometry"/>
                </mxCell>
                <mxCell id="74" value="commit3" style="ellipse;whiteSpace=wrap;html=1;strokeColor=#121111;fillColor=none;fontColor=#000000;fontSize=18;fontStyle=1;strokeWidth=2;" vertex="1" parent="1">
                    <mxGeometry x="560" y="1639" width="120" height="80" as="geometry"/>
                </mxCell>
                <mxCell id="75" value="master" style="text;html=1;align=center;verticalAlign=middle;resizable=0;points=[];autosize=1;strokeColor=none;fillColor=none;fontSize=19;fontColor=#ea0606;fontStyle=1" vertex="1" parent="1">
                    <mxGeometry x="582" y="1280" width="80" height="35" as="geometry"/>
                </mxCell>
                <mxCell id="76" value="" style="edgeStyle=none;html=1;strokeColor=#121111;strokeWidth=3;" edge="1" parent="1" source="77" target="80">
                    <mxGeometry relative="1" as="geometry"/>
                </mxCell>
                <mxCell id="77" value="Commit 4" style="ellipse;whiteSpace=wrap;html=1;fillColor=none;strokeColor=#201e1e;fontColor=#050505;fontSize=18;fontStyle=1;strokeWidth=2;" vertex="1" parent="1">
                    <mxGeometry x="746" y="1319" width="120" height="80" as="geometry"/>
                </mxCell>
                <mxCell id="78" value="" style="edgeStyle=none;html=1;strokeColor=#121111;strokeWidth=3;" edge="1" parent="1" source="80" target="81">
                    <mxGeometry relative="1" as="geometry"/>
                </mxCell>
                <mxCell id="79" style="edgeStyle=none;html=1;exitX=0;exitY=0.5;exitDx=0;exitDy=0;strokeColor=#121111;strokeWidth=3;fontSize=19;fontColor=#f20202;entryX=1;entryY=0;entryDx=0;entryDy=0;" edge="1" parent="1" source="80" target="84">
                    <mxGeometry relative="1" as="geometry">
                        <mxPoint x="676" y="1782" as="targetPoint"/>
                    </mxGeometry>
                </mxCell>
                <mxCell id="80" value="commit5" style="ellipse;whiteSpace=wrap;html=1;gradientColor=none;fillColor=none;strokeColor=#fb0404;fontColor=#f20202;fontSize=18;fontStyle=1;strokeWidth=2;" vertex="1" parent="1">
                    <mxGeometry x="746" y="1479" width="120" height="80" as="geometry"/>
                </mxCell>
                <mxCell id="81" value="commit6" style="ellipse;whiteSpace=wrap;html=1;strokeColor=#121111;fillColor=none;fontColor=#000000;fontSize=18;fontStyle=1;strokeWidth=2;" vertex="1" parent="1">
                    <mxGeometry x="746" y="1639" width="120" height="80" as="geometry"/>
                </mxCell>
                <mxCell id="82" value="dev" style="text;html=1;align=center;verticalAlign=middle;resizable=0;points=[];autosize=1;strokeColor=none;fillColor=none;fontSize=19;fontColor=#ea0606;fontStyle=1" vertex="1" parent="1">
                    <mxGeometry x="782" y="1280" width="51" height="35" as="geometry"/>
                </mxCell>
                <mxCell id="86" value="" style="edgeStyle=none;html=1;strokeColor=#121111;strokeWidth=3;fontSize=19;fontColor=#f20202;" edge="1" parent="1" source="84" target="85">
                    <mxGeometry relative="1" as="geometry"/>
                </mxCell>
                <mxCell id="84" value="commit5" style="ellipse;whiteSpace=wrap;html=1;gradientColor=none;fillColor=none;strokeColor=#fb0404;fontColor=#f20202;fontSize=18;fontStyle=1;strokeWidth=2;" vertex="1" parent="1">
                    <mxGeometry x="562" y="1784" width="120" height="80" as="geometry"/>
                </mxCell>
                <mxCell id="85" value="cherry-pick commit" style="ellipse;whiteSpace=wrap;html=1;gradientColor=none;fillColor=none;strokeColor=#fb0404;fontColor=#f20202;fontSize=18;fontStyle=1;strokeWidth=2;" vertex="1" parent="1">
                    <mxGeometry x="563" y="1914" width="120" height="80" as="geometry"/>
                </mxCell>
            </root>
        </mxGraphModel>
    </diagram>
</mxfile>